<svg xmlns="http://www.w3.org/2000/svg" version="1.1" xmlns:xlink="http://www.w3.org/1999/xlink" xmlns:svgjs="http://svgjs.dev/svgjs" width="1440" height="2000" preserveAspectRatio="none" viewBox="0 0 1440 2000"><g mask="url(&quot;#SvgjsMask1121&quot;)" fill="none"><path d="M 266,-852.5896050965232 C 372.6,-719.19 847.8,-452.39 799,-185.58960509652317 C 750.2,81.21 -42.4,214.61 22,481.4103949034768 C 86.4,748.21 1120.6,881.61 1121,1148.4103949034768 C 1121.4,1415.21 80.2,1645.09 24,1815.4103949034768 C -32.2,1985.73 676.8,1963.08 840,2000" stroke="rgba(75, 85, 99, 0.71)" stroke-width="2"></path><path d="M 139,-1200.4709084805822 C 265.6,-1067.07 763.4,-800.27 772,-533.4709084805822 C 780.6,-266.67 68.6,-133.27 182,133.52909151941776 C 295.4,400.33 1338.6,533.73 1339,800.5290915194178 C 1339.4,1067.33 222.2,1227.63 184,1467.5290915194178 C 145.8,1707.42 955.2,1893.51 1148,2000" stroke="rgba(75, 85, 99, 0.71)" stroke-width="2"></path><path d="M 1191,-515.585217262292 C 1006,-382.19 359.8,-115.39 266,151.41478273770804 C 172.2,418.21 746.4,551.61 722,818.414782737708 C 697.6,1085.21 123.6,1218.61 144,1485.414782737708 C 164.4,1752.21 726,2049.5 824,2152.4147827377083 C 922,2255.33 672,2030.48 634,2000" stroke="rgba(75, 85, 99, 0.71)" stroke-width="2"></path><path d="M 509,-454.620947010245 C 663.2,-321.22 1371.8,-54.42 1280,212.379052989755 C 1188.2,479.18 116.4,612.58 50,879.379052989755 C -16.4,1146.18 835.2,1279.58 948,1546.379052989755 C 1060.8,1813.18 610.2,2122.65 614,2213.379052989755 C 617.8,2304.1 896.4,2042.68 967,2000" stroke="rgba(75, 85, 99, 0.71)" stroke-width="2"></path></g><defs><mask id="SvgjsMask1121"><rect width="1440" height="2000" fill="#ffffff"></rect></mask></defs></svg>